<svg width="1000" height="1000" viewBox="0 0 1000 1000" fill="none" xmlns="http://www.w3.org/2000/svg">
<path d="M852 438.7C822.4 405 774.7 385.9 713.6 383C706.2 348.8 679.4 323.3 647.2 323.3H183.4C145.6 323.3 115 358.3 115 401.5V806.5C115 847.5 142.6 881 177.6 884.5V922C177.6 930.7 184.6 937.7 193.3 937.7H637.5C646.2 937.7 653.2 930.7 653.2 922V884.5C688.3 881.1 715.8 847.6 715.8 806.5V750C763.8 737.2 804.6 709.7 836 668.6C867.7 627 878.2 586.2 879.3 581.6L879.6 580.6C892.1 521.7 882.9 473.9 852 438.7ZM787.4 562.7C786.6 565.6 778.9 592.2 759.2 618C746.6 634.5 732.1 647.1 715.6 655.8V470.7C738 472.5 765.2 478.1 779.2 494.1C791.4 508 794.2 531.1 787.4 562.7Z" fill="#955F31"/>
<path d="M387.7 162.7C368 166.6 344.7 170.9 321.3 172.7C297.2 174.7 265.6 173.6 251.1 158.1C244.5 151 242.1 141.7 243.9 130.3C249.2 96.8 281.5 80.4 307.7 72.7C314.5 70.7 321.6 68.9 328.8 67.5C351.9 62.9 377.1 61.5 401.3 63.6C402.7 63.6 403.8 64.5 404.1 65.9C404.3 67.4 403.4 68.9 401.8 69.2H401.5C389.5 70.6 376.9 72.8 364 75.6C344 80 328 84.9 313.9 90.9C298.4 97.6 281.5 106.4 273.8 121.4C271.2 126.3 267.9 136.5 273.7 139.7C280.1 143.2 288.9 143.1 296 143C305.3 142.9 314.6 141.8 322.3 140.7C332.4 139.3 343.2 137.5 355.5 135.1C367.8 132.7 380.2 129.9 392.2 127.3C405.9 124.3 420.2 121.2 434.2 118.5L438.5 117.7L438.595 117.682C455.071 114.486 473.533 110.906 490.6 113.9C502.5 116 511 122.8 514.1 132.5C514.2 132.6 514.3 132.8 514.3 133L514.4 133.3V133.5C516.8 143 514.4 156.6 490.9 168.9C477.7 175.9 463.4 181 449.6 185.9C447.2 186.6 444.8 187.5 442.4 188.4C441.3 188.8 439.6 189.4 437.5 190.1C398.4 203.3 377.5 214.3 374.5 222.7C373.5 225.5 376.3 228.5 382.9 228.1C386.1 227.9 389.6 227.4 394 226.5L401.5 224.9L408.8 223.3L409.9 223C423.4 220.4 438.8 218.3 449.5 228.1C453.3 231.6 455.3 235.8 455.5 240.5C455.9 252.3 444.4 264.4 437.6 271.7L437.5 271.8C436.1 273.5 434.5 275 432.9 276.7C429.2 280.6 425.3 284.6 421.8 288.8C418.1 293.1 414.3 298.3 414.9 303.2C415.1 304.7 414.1 306 412.7 306.4H412.6C411.2 306.7 409.8 305.9 409.4 304.5C405.6 293.1 415.5 280 422.7 270.5C423.9 268.9 425 267.5 425.9 266.2C426.3 265.5 426.9 264.8 427.7 263.7C431.3 259.1 439.6 248.1 438.5 242.9C438.3 242 436.5 234.1 407.1 246.2C401.5 248.5 395.4 250.3 389.2 251.5C385.3 252.2 381.7 252.4 378.4 252.5C368.8 252.8 359.5 248.4 353.4 240.8C347.6 233.6 345.5 224.5 347.6 215.7C352.797 192.915 380.763 180.217 399.263 171.817L399.3 171.8L401.1 171C410.7 166.6 424 161.4 437 156.4C443.4 154 450.5 151.2 456.5 148.7C453.5 149.3 450.1 150 446.9 150.7C443.8 151.4 440.8 152 438.3 152.5L436.8 152.8C427 154.8 417 156.8 407 158.8C400.6 160.2 394.2 161.4 387.7 162.7Z" fill="#B89677"/>
</svg>
